<svg width="60" height="60" viewBox="0 0 60 60" fill="none" xmlns="http://www.w3.org/2000/svg">
<path d="M30 60C46.5685 60 60 46.5685 60 30C60 13.4315 46.5685 0 30 0C13.4315 0 0 13.4315 0 30C0 46.5685 13.4315 60 30 60Z" fill="#60A1DC"/>
<path d="M44.6045 17.8133C44.4889 17.48 44.3512 17.3867 44.1378 17.3067C43.6712 17.1289 42.8801 17.3955 42.8801 17.3955C42.8801 17.3955 14.8401 27.4711 13.2401 28.5911C12.8934 28.8311 12.7778 28.9689 12.7245 29.1333C12.4489 29.9289 13.3112 30.28 13.3112 30.28L20.5378 32.6355C20.5378 32.6355 20.8089 32.6755 20.9023 32.6133C22.5467 31.5733 37.4445 22.1689 38.3023 21.8533C38.4401 21.8133 38.5378 21.8578 38.5112 21.9511C38.1689 23.16 25.2312 34.6578 25.2312 34.6578C25.2312 34.6578 25.1823 34.72 25.1512 34.7911L25.1334 34.7822L24.4578 41.9511C24.4578 41.9511 24.1734 44.1467 26.3734 41.9511C27.9245 40.4 29.4223 39.1067 30.1734 38.4755C32.6578 40.1911 35.3334 42.0889 36.4845 43.08C37.0623 43.5778 37.5512 43.6578 37.9467 43.6444C39.0401 43.6044 39.3467 42.4 39.3467 42.4C39.3467 42.4 44.4578 21.8355 44.6267 19.08C44.6445 18.8089 44.6667 18.64 44.6667 18.4533C44.6712 18.1955 44.6445 17.9333 44.6045 17.8133Z" fill="white"/>
</svg>
