<svg width="60" height="60" viewBox="0 0 60 60" fill="none" xmlns="http://www.w3.org/2000/svg">
<path d="M30 60C46.5685 60 60 46.5685 60 30C60 13.4315 46.5685 0 30 0C13.4315 0 0 13.4315 0 30C0 46.5685 13.4315 60 30 60Z" fill="#5FA1EE"/>
<path d="M23.9377 47.28C38.5911 47.28 46.6044 35.1422 46.6044 24.6133C46.6044 24.2666 46.5955 23.9244 46.5822 23.5822C48.1377 22.4578 49.4888 21.0533 50.5555 19.4578C49.1288 20.0933 47.5911 20.52 45.9822 20.7111C47.6266 19.7244 48.8888 18.1644 49.4844 16.3066C47.9466 17.2178 46.2399 17.8844 44.4266 18.24C42.9733 16.6933 40.9022 15.7244 38.6133 15.7244C34.2133 15.7244 30.6444 19.2933 30.6444 23.6889C30.6444 24.3155 30.7155 24.92 30.8533 25.5066C24.2311 25.1733 18.3599 22.0044 14.4355 17.1822C13.7511 18.36 13.3555 19.7289 13.3555 21.1866C13.3555 23.9511 14.7599 26.3911 16.9022 27.8178C15.5955 27.7778 14.3688 27.4178 13.2933 26.8222C13.2933 26.8533 13.2933 26.8889 13.2933 26.9244C13.2933 30.7822 16.0399 34.0044 19.6844 34.7333C19.0133 34.9155 18.3111 35.0133 17.5866 35.0133C17.0755 35.0133 16.5733 34.9644 16.0888 34.8711C17.1022 38.0355 20.0444 40.3378 23.5288 40.4044C20.7999 42.5422 17.3688 43.8133 13.6355 43.8133C12.9911 43.8133 12.3599 43.7778 11.7333 43.7022C15.2533 45.96 19.4399 47.28 23.9377 47.28Z" fill="white"/>
</svg>
